<svg xmlns="http://www.w3.org/2000/svg" xmlns:xlink="http://www.w3.org/1999/xlink" width="40" zoomAndPan="magnify" viewBox="0 0 30 30.000001" height="40" preserveAspectRatio="xMidYMid meet" version="1.0"><defs><clipPath id="c09b231447"><path d="M 4.378906 5.246094 L 25.421875 5.246094 L 25.421875 20.144531 L 4.378906 20.144531 Z M 4.378906 5.246094 " clip-rule="nonzero"/></clipPath><clipPath id="93fe81a5f0"><path d="M 4.378906 17.738281 L 25.421875 17.738281 L 25.421875 20.144531 L 4.378906 20.144531 Z M 4.378906 17.738281 " clip-rule="nonzero"/></clipPath><clipPath id="20845fb14d"><path d="M 10.429688 22.375 L 19.394531 22.375 L 19.394531 24.117188 L 10.429688 24.117188 Z M 10.429688 22.375 " clip-rule="nonzero"/></clipPath></defs><path fill="#477b9e" d="M 16.507812 22.523438 L 15.941406 19.996094 L 13.863281 19.996094 L 13.296875 22.523438 L 16.507812 22.523438 " fill-opacity="1" fill-rule="evenodd"/><g clip-path="url(#c09b231447)"><path fill="#deeaff" d="M 4.378906 5.828125 L 4.378906 19.5625 C 4.378906 19.882812 4.632812 20.144531 4.945312 20.144531 L 24.855469 20.144531 C 25.167969 20.144531 25.421875 19.882812 25.421875 19.5625 L 25.421875 5.828125 C 25.421875 5.503906 25.167969 5.246094 24.855469 5.246094 L 4.945312 5.246094 C 4.632812 5.246094 4.378906 5.503906 4.378906 5.828125 " fill-opacity="1" fill-rule="evenodd"/></g><g clip-path="url(#93fe81a5f0)"><path fill="#508bb3" d="M 25.421875 17.792969 L 25.421875 19.5625 C 25.421875 19.882812 25.167969 20.144531 24.855469 20.144531 L 4.945312 20.144531 C 4.632812 20.144531 4.378906 19.882812 4.378906 19.5625 L 4.378906 17.792969 L 25.421875 17.792969 " fill-opacity="1" fill-rule="evenodd"/></g><g clip-path="url(#20845fb14d)"><path fill="#508bb3" d="M 19.34375 24.117188 L 10.457031 24.117188 C 10.457031 23.15625 11.21875 22.375 12.152344 22.375 L 17.652344 22.375 C 18.585938 22.375 19.34375 23.15625 19.34375 24.117188 " fill-opacity="1" fill-rule="evenodd"/></g><path fill="#fa9696" d="M 23.207031 9.128906 C 23.207031 7.882812 22.222656 6.867188 21.007812 6.867188 C 19.796875 6.867188 18.808594 7.882812 18.808594 9.128906 C 18.808594 10.375 19.796875 11.386719 21.007812 11.386719 C 22.222656 11.386719 23.207031 10.375 23.207031 9.128906 " fill-opacity="1" fill-rule="evenodd"/><path fill="#98e6b6" d="M 21.007812 6.867188 C 22.222656 6.867188 23.207031 7.878906 23.207031 9.128906 L 21.007812 9.128906 L 21.007812 6.867188 " fill-opacity="1" fill-rule="evenodd"/><path fill="#75c0f2" d="M 15.988281 7.855469 L 6.820312 7.855469 C 6.695312 7.855469 6.59375 7.75 6.59375 7.621094 C 6.59375 7.492188 6.695312 7.390625 6.820312 7.390625 L 15.988281 7.390625 C 16.113281 7.390625 16.214844 7.492188 16.214844 7.621094 C 16.214844 7.75 16.113281 7.855469 15.988281 7.855469 " fill-opacity="1" fill-rule="evenodd"/><path fill="#75c0f2" d="M 15.988281 9.359375 L 6.820312 9.359375 C 6.695312 9.359375 6.59375 9.257812 6.59375 9.128906 C 6.59375 9 6.695312 8.894531 6.820312 8.894531 L 15.988281 8.894531 C 16.113281 8.894531 16.214844 9 16.214844 9.128906 C 16.214844 9.257812 16.113281 9.359375 15.988281 9.359375 " fill-opacity="1" fill-rule="evenodd"/><path fill="#75c0f2" d="M 15.988281 10.867188 L 6.820312 10.867188 C 6.695312 10.867188 6.59375 10.765625 6.59375 10.636719 C 6.59375 10.507812 6.695312 10.402344 6.820312 10.402344 L 15.988281 10.402344 C 16.113281 10.402344 16.214844 10.507812 16.214844 10.636719 C 16.214844 10.761719 16.113281 10.867188 15.988281 10.867188 " fill-opacity="1" fill-rule="evenodd"/><path fill="#75c0f2" d="M 6.820312 16.167969 L 8.246094 16.167969 L 8.246094 12.8125 L 6.820312 12.8125 L 6.820312 16.167969 " fill-opacity="1" fill-rule="evenodd"/><path fill="#fa9696" d="M 9.8125 16.167969 L 11.238281 16.167969 L 11.238281 13.539062 L 9.8125 13.539062 L 9.8125 16.167969 " fill-opacity="1" fill-rule="evenodd"/><path fill="#fdd559" d="M 12.804688 16.167969 L 14.230469 16.167969 L 14.230469 12.917969 L 12.804688 12.917969 L 12.804688 16.167969 " fill-opacity="1" fill-rule="evenodd"/><path fill="#fa9696" d="M 15.796875 16.167969 L 17.222656 16.167969 L 17.222656 13.828125 L 15.796875 13.828125 L 15.796875 16.167969 " fill-opacity="1" fill-rule="evenodd"/><path fill="#75c0f2" d="M 18.792969 16.167969 L 20.214844 16.167969 L 20.214844 13.101562 L 18.792969 13.101562 L 18.792969 16.167969 " fill-opacity="1" fill-rule="evenodd"/><path fill="#fdd559" d="M 21.785156 16.167969 L 23.207031 16.167969 L 23.207031 13.683594 L 21.785156 13.683594 L 21.785156 16.167969 " fill-opacity="1" fill-rule="evenodd"/></svg>